<?xml version="1.0" encoding="UTF-8" standalone="no"?>
<svg width="1920px" height="1080px" viewBox="0 0 1920 1080" version="1.1" xmlns="http://www.w3.org/2000/svg" xmlns:xlink="http://www.w3.org/1999/xlink">
    <!-- Generator: Sketch 3.8.3 (29802) - http://www.bohemiancoding.com/sketch -->
    <title>SP</title>
    <desc>Created with Sketch.</desc>
    <defs></defs>
    <g id="Page-1" stroke="none" stroke-width="1" fill="none" fill-rule="evenodd">
        <g id="SP">
            <rect id="Rectangle-1215" fill="#3A3A3A" x="0" y="0" width="1920" height="1080"></rect>
            <g id="Group" transform="translate(636.000000, 238.000000)">
                <path d="M11.3339676,274.876701 L51.6452495,314.020447 L179.127081,433.060544 L234.050145,380.014417 C239.082323,373.109414 238.743766,363.717994 232.996004,357.167094 L182.820423,313.150586 L182.997395,313.119795 L128.913028,260.643311 C122.588181,253.453486 122.74207,242.753426 129.443946,235.802236 L274.976984,95.1849668 L208.850785,31 L11.4032178,221.753595 C-3.77795405,236.418066 -3.80103743,260.21223 11.3339676,274.876701" id="Fill-10" fill="#262626"></path>
                <path d="M445.635322,342.199239 L405.331734,303.06319 L277.849902,184 L222.919144,237.069221 C217.886967,243.958828 218.225523,253.350248 223.98098,259.908846 L274.148867,303.933051 L273.971894,303.956145 L328.056261,356.424931 C334.396497,363.622453 334.227219,374.314816 327.509954,381.281402 L182,521.890973 L248.126199,586.083637 L405.147067,434.335227 L445.573766,395.322344 C460.739549,380.665571 460.770327,356.86371 445.635322,342.199239" id="Fill-11" fill="#262626"></path>
                <path d="M91.3339676,254.876701 L131.645249,294.020447 L259.127081,413.060544 L314.050145,360.014417 C319.082323,353.109414 318.743766,343.717994 312.996004,337.167094 L262.820423,293.150586 L262.997395,293.119795 L208.913028,240.643311 C202.588181,233.453486 202.74207,222.753426 209.443946,215.802236 L354.976984,75.1849668 L288.850785,11 L91.4032178,201.753595 C76.2220459,216.418066 76.1989626,240.21223 91.3339676,254.876701" id="Fill-10" fill="#3A3A3A"></path>
                <path d="M525.635322,322.199239 L485.331734,283.06319 L357.849902,164 L302.919144,217.069221 C297.886967,223.958828 298.225523,233.350248 303.98098,239.908846 L354.148867,283.933051 L353.971894,283.956145 L408.056261,336.424931 C414.396497,343.622453 414.227219,354.314816 407.509954,361.281402 L262,501.890973 L328.126199,566.083637 L485.147067,414.335227 L525.573766,375.322344 C540.739549,360.665571 540.770327,336.86371 525.635322,322.199239" id="Fill-11" fill="#3A3A3A"></path>
                <path d="M126.420441,299.401095 L254.008384,418.542234 L259.21421,423.403335 L264.337403,418.455222 L319.260466,365.409095 L320.111338,364.431649 C327.238264,354.652296 326.664642,341.373853 318.633618,332.220649 L267.766387,287.512551 L278.782955,297.985934 L214.135714,235.260602 C210.764386,231.392798 210.885388,225.112861 214.843189,221.007827 L360.18841,80.5785771 L365.757845,75.197265 L360.200702,69.8032603 L294.074503,5.61829352 L288.863032,0.55981209 L283.639706,5.60605319 L86.1921394,196.359648 C67.9659941,213.965456 67.9315665,242.644888 86.1150564,260.263069 L96.5528788,249.490332 C84.4608852,237.774268 84.4835839,218.865378 96.6139248,207.147901 L288.863036,20.9999995 L345.000014,75.1972633 L204.232519,210.408625 C194.652099,220.338661 194.360817,235.456019 203.281823,245.59705 L246.088225,288.449152 L308.05004,342.805129 C310.752265,345.981641 310.989772,351.479549 307.988952,355.597185 L308.839824,354.619739 L259.214217,402.999998 L136.763947,288.538757 L96.5587762,249.496053 L86.1091591,260.257349 L126.420441,299.401095 Z" id="Fill-10" fill="#A2A2A2"></path>
                <path d="M490.556527,277.682527 L362.969131,158.518805 L357.762502,153.656011 L352.638786,158.60609 L297.708028,211.675311 L296.862649,212.645549 C289.728372,222.413163 290.305482,235.695765 298.343767,244.855747 L349.201985,289.570282 L337.605709,278.528228 L348.749603,289.339237 L402.83397,341.808022 C406.214666,345.680689 406.088459,351.950424 402.110923,356.075592 L256.788293,496.497633 L251.219761,501.878632 L256.775959,507.272366 L322.902158,571.465031 L328.114514,576.524977 L333.338182,571.47671 L490.359051,419.728299 L530.781857,380.719175 C548.999232,363.113234 549.033664,334.427119 530.854233,316.81287 L520.416411,327.585607 C532.504784,339.298164 532.482077,358.215771 520.361741,369.929313 L479.938976,408.938396 L328.114514,556.000005 L273,501.878637 L412.721661,366.674742 C422.319044,356.727885 422.623257,341.615221 413.684124,331.467395 L359.194185,278.573053 L308.927861,234.271616 C306.218671,231.088039 305.979976,225.594287 308.975639,221.492892 L308.130261,222.46313 L357.762501,173.999999 L480.212506,288.544386 L520.410529,327.579902 L530.860115,316.818575 L490.556527,277.682527 Z" id="Fill-11" fill="#A2A2A2"></path>
            </g>
        </g>
    </g>
</svg>